<mxfile host="app.diagrams.net" modified="2023-08-06T13:25:43.578Z" agent="Mozilla/5.0 (Windows NT 10.0; Win64; x64) AppleWebKit/537.36 (KHTML, like Gecko) Chrome/115.0.0.0 Safari/537.36" version="21.6.6" etag="ybe4mJkRqfcyQVkJrcrv" type="github">
  <diagram name="페이지-1" id="AUXZzoRi4EktZwjJAjUH">
    <mxGraphModel>
      <root>
        <mxCell id="0" />
        <mxCell id="1" parent="0" />
      </root>
    </mxGraphModel>
  </diagram>
</mxfile>
